<svg xmlns="http://www.w3.org/2000/svg" xmlns:xlink="http://www.w3.org/1999/xlink" viewBox="0 0 430 430" width="430" height="430" preserveAspectRatio="xMidYMid meet" style="width: 100%; height: 100%; transform: translate3d(0px, 0px, 0px); content-visibility: visible;">
    <defs>
        <clipPath id="__lottie_element_1326">
            <rect width="430" height="430" x="0" y="0"></rect>
        </clipPath>
        <clipPath id="__lottie_element_1328">
            <path d="M0,0 L430,0 L430,430 L0,430z"></path>
        </clipPath>
    </defs>
    <g clip-path="url(#__lottie_element_1326)">
        <g clip-path="url(#__lottie_element_1328)" transform="matrix(1,0,0,1,0,0)" opacity="1" style="display: block;">
            <g transform="matrix(0,-1,1,0,215,255)" opacity="1" style="display: none;">
                <g opacity="1" transform="matrix(1,0,0,1,0,0)">
                    <path stroke-linecap="round" stroke-linejoin="round" fill-opacity="0" class="secondary" stroke="rgb(8,168,138)" stroke-opacity="1" stroke-width="20" d=" M156.3500518798828,3.8758907318115234 C156.3500518798828,3.8758907318115234 160.97012329101562,-0.745132565498352 160.97012329101562,-0.745132565498352 C160.97012329101562,-0.745132565498352 156.3500518798828,-5.365206718444824 156.3500518798828,-5.365206718444824"></path>
                </g>
            </g>
            <g transform="matrix(0,-1,1,0,215,165)" opacity="1" style="display: none;">
                <g opacity="1" transform="matrix(1,0,0,1,0,0)">
                    <path stroke-linecap="round" stroke-linejoin="round" fill-opacity="0" class="secondary" stroke="rgb(8,168,138)" stroke-opacity="1" stroke-width="20" d=" M70.88390350341797,3.89894437789917 C70.88390350341797,3.89894437789917 75.52677154541016,-0.7448728084564209 75.52677154541016,-0.7448728084564209 C75.52677154541016,-0.7448728084564209 70.88390350341797,-5.3877410888671875 70.88390350341797,-5.3877410888671875"></path>
                </g>
            </g>
            <g transform="matrix(0,-1,1,0,215,215)" opacity="1" style="display: block;">
                <g opacity="1" transform="matrix(1,0,0,1,0,0)">
                    <path stroke-linecap="butt" stroke-linejoin="round" fill-opacity="0" class="primary" stroke="rgb(18,19,49)" stroke-opacity="1" stroke-width="20" d=" M160,-131 C160,-131 160,131 160,131 C160,147.00509643554688 147.00509643554688,160 131,160 C131,160 -131,160 -131,160 C-147.00509643554688,160 -160,147.00509643554688 -160,131 C-160,131 -160,-131 -160,-131 C-160,-147.00509643554688 -147.00509643554688,-160 -131,-160 C-131,-160 131,-160 131,-160 C147.00509643554688,-160 160,-147.00509643554688 160,-131z"></path>
                </g>
            </g>
            <g transform="matrix(0,-1,1,0,215,255)" opacity="1" style="display: block;">
                <g opacity="1" transform="matrix(1,0,0,1,0,0)">
                    <path stroke-linecap="round" stroke-linejoin="round" fill-opacity="0" class="secondary" stroke="rgb(8,168,138)" stroke-opacity="1" stroke-width="20" d=" M-35,70 C-35,70 35,0 35,0 C35,0 -35,-70 -35,-70"></path>
                </g>
            </g>
            <g transform="matrix(0,-1,1,0,215,165)" opacity="1" style="display: block;">
                <g opacity="1" transform="matrix(1,0,0,1,0,0)">
                    <path stroke-linecap="round" stroke-linejoin="round" fill-opacity="0" class="secondary" stroke="rgb(8,168,138)" stroke-opacity="1" stroke-width="20" d=" M-35,70 C-35,70 35,0 35,0 C35,0 -35,-70 -35,-70"></path>
                </g>
            </g>
        </g>
    </g>
</svg>